<svg xmlns="http://www.w3.org/2000/svg" width="400" height="394" viewBox="0 0 400 394" role="img"><title>Perfecto AI usage: 365-day profile total, past-30-day total, daily average and heatmap</title><style>text{font-family:-apple-system,BlinkMacSystemFont,Segoe UI,sans-serif}</style><defs><linearGradient id="g"><stop stop-color="#bf91f3"/><stop offset="1" stop-color="#7dcfff"/></linearGradient></defs><rect x="1" y="1" width="398" height="392" rx="10" fill="#1a1b27" stroke="#414868"/><text x="24" y="31" font-size="14" fill="#a9b1d6" font-weight="400">Perfecto · TokenTracker</text><text x="16" y="68" font-size="16" fill="#70a5fd" font-weight="600">Profile total · 365 days</text><text x="16" y="111" font-size="40" fill="#c0caf5" font-weight="700">63.9B</text><text x="16" y="150" font-size="16" fill="#a9b1d6" font-weight="400">Last 30 days</text><text x="16" y="181" font-size="28" fill="#7dcfff" font-weight="700">20.77B</text><text x="216" y="150" font-size="16" fill="#a9b1d6" font-weight="400">Daily average</text><text x="216" y="181" font-size="28" fill="#7dcfff" font-weight="700">692.43M</text><text x="16" y="207" font-size="14" fill="#a9b1d6" font-weight="400">2026-09-05 → 2026-10-04 · UTC</text><text x="16" y="242" font-size="18" fill="#70a5fd" font-weight="600">Daily activity</text><rect x="16.0" y="255" width="21" height="23" rx="3" fill="#7dcfff"><title>2026-09-05: 1.22B tokens</title></rect><rect x="40.5" y="255" width="21" height="23" rx="3" fill="#7dcfff"><title>2026-09-06: 1.38B tokens</title></rect><rect x="65.0" y="255" width="21" height="23" rx="3" fill="#7dcfff"><title>2026-09-07: 1.1B tokens</title></rect><rect x="89.5" y="255" width="21" height="23" rx="3" fill="#7dcfff"><title>2026-09-08: 1.38B tokens</title></rect><rect x="114.0" y="255" width="21" height="23" rx="3" fill="#bf91f3"><title>2026-09-09: 452.01M tokens</title></rect><rect x="138.5" y="255" width="21" height="23" rx="3" fill="#7dcfff"><title>2026-09-10: 1.16B tokens</title></rect><rect x="163.0" y="255" width="21" height="23" rx="3" fill="#7dcfff"><title>2026-09-11: 1.05B tokens</title></rect><rect x="187.5" y="255" width="21" height="23" rx="3" fill="#7dcfff"><title>2026-09-12: 1.09B tokens</title></rect><rect x="212.0" y="255" width="21" height="23" rx="3" fill="#7dcfff"><title>2026-09-13: 1.37B tokens</title></rect><rect x="236.5" y="255" width="21" height="23" rx="3" fill="#7dcfff"><title>2026-09-14: 840.73M tokens</title></rect><rect x="261.0" y="255" width="21" height="23" rx="3" fill="#7dcfff"><title>2026-09-15: 1.39B tokens</title></rect><rect x="285.5" y="255" width="21" height="23" rx="3" fill="#7dcfff"><title>2026-09-16: 1.13B tokens</title></rect><rect x="310.0" y="255" width="21" height="23" rx="3" fill="#bf91f3"><title>2026-09-17: 675.59M tokens</title></rect><rect x="334.5" y="255" width="21" height="23" rx="3" fill="#7dcfff"><title>2026-09-18: 786.68M tokens</title></rect><rect x="359.0" y="255" width="21" height="23" rx="3" fill="#bf91f3"><title>2026-09-19: 554.31M tokens</title></rect><rect x="16.0" y="282" width="21" height="23" rx="3" fill="#7dcfff"><title>2026-09-20: 786.19M tokens</title></rect><rect x="40.5" y="282" width="21" height="23" rx="3" fill="#7dcfff"><title>2026-09-21: 1.14B tokens</title></rect><rect x="65.0" y="282" width="21" height="23" rx="3" fill="#8b71c1"><title>2026-09-22: 244.14M tokens</title></rect><rect x="89.5" y="282" width="21" height="23" rx="3" fill="#62578f"><title>2026-09-23: 167.77M tokens</title></rect><rect x="114.0" y="282" width="21" height="23" rx="3" fill="#bf91f3"><title>2026-09-24: 584.57M tokens</title></rect><rect x="138.5" y="282" width="21" height="23" rx="3" fill="#bf91f3"><title>2026-09-25: 464.58M tokens</title></rect><rect x="163.0" y="282" width="21" height="23" rx="3" fill="#7dcfff"><title>2026-09-26: 1.17B tokens</title></rect><rect x="187.5" y="282" width="21" height="23" rx="3" fill="#62578f"><title>2026-09-27: 116.6M tokens</title></rect><rect x="212.0" y="282" width="21" height="23" rx="3" fill="#62578f"><title>2026-09-28: 157.65M tokens</title></rect><rect x="236.5" y="282" width="21" height="23" rx="3" fill="#414868"><title>2026-09-29: 53.01M tokens</title></rect><rect x="261.0" y="282" width="21" height="23" rx="3" fill="#414868"><title>2026-09-30: 41.6M tokens</title></rect><rect x="285.5" y="282" width="21" height="23" rx="3" fill="#414868"><title>2026-10-01: 41.52M tokens</title></rect><rect x="310.0" y="282" width="21" height="23" rx="3" fill="#62578f"><title>2026-10-02: 92.78M tokens</title></rect><rect x="334.5" y="282" width="21" height="23" rx="3" fill="#414868"><title>2026-10-03: 51.54M tokens</title></rect><rect x="359.0" y="282" width="21" height="23" rx="3" fill="#62578f"><title>2026-10-04: 92.78M tokens</title></rect><text x="16" y="325" font-size="14" fill="#a9b1d6" font-weight="400">2026-09-05</text><text x="290" y="325" font-size="14" fill="#a9b1d6" font-weight="400">2026-10-04</text><path d="M16 337H384" stroke="#414868"/><text x="16" y="357" font-size="12" fill="#a9b1d6" font-weight="400">Total: 2026-10-04 16:55 UTC · older</text><text x="16" y="377" font-size="12" fill="#a9b1d6" font-weight="400">30d: 2026-10-04 16:55 UTC · older</text></svg>
